<svg width="64" height="64" viewBox="0 0 64 64" fill="none" xmlns="http://www.w3.org/2000/svg">
  <rect width="64" height="64" rx="18" fill="white"/>
  <path d="M31.7 8.4c-2.4 0-4.6 1-6.1 2.9l-1.8 2.1L22 11.3a7.79 7.79 0 0 0-6.1-2.9c-4.5 0-7.7 3.1-7.7 7.4 0 2.7 1.2 5.2 3.7 7.5l11 10.4c.5.5 1.3.5 1.8 0l11-10.4c2.5-2.3 3.7-4.8 3.7-7.5 0-4.3-3.2-7.4-7.7-7.4Z" fill="#FF3B43"/>
  <path d="M21.4 17.5h4.3v-4.3c0-.7.6-1.3 1.3-1.3h3.5c.7 0 1.3.6 1.3 1.3v4.3h4.3c.7 0 1.3.6 1.3 1.3v3.5c0 .7-.6 1.3-1.3 1.3h-4.3V28c0 .7-.6 1.3-1.3 1.3H27c-.7 0-1.3-.6-1.3-1.3v-4.3h-4.3c-.7 0-1.3-.6-1.3-1.3v-3.5c0-.7.6-1.4 1.3-1.4Z" fill="white"/>
  <path d="M7.3 40.5C11.3 30.7 19.4 26 31.5 26h13.2c.6 0 1 .5 1 1-.4 5.4-4.7 9.8-10.8 11.2l-6.5 1.5c-1.2.3-2 1.4-1.8 2.6.2 1.2 1.2 2 2.4 2h5.4c8.5 0 16.5-3.7 22-10.2.7-.8 2-.6 2.4.3 1.3 3 1.2 6.2-.2 9.2-3.3 7.2-12.9 12.1-21.3 12.1H9c-1.2 0-2-1.1-1.7-2.2Z" fill="#08C768"/>
  <path d="M32.9 38.5c7-.6 13.3-4.1 18-9.8.7-.8 1.9 0 1.5.9-1.4 3.1-3.7 5.9-6.6 8.3-4.1 3.3-8.8 5.2-13.7 5.6h-3.9c-1 0-1.7-.7-1.8-1.7-.1-.9.6-1.7 1.6-1.8h4.9Z" fill="white"/>
</svg>
